PathFileType	4	(X/Y/Z)	Run_400 02
DataRate	CameraRate	NumFrames	NumMarkers	Units	OrigDataRate	OrigDataStartFrame	OrigNumFrames
100	100	6	42	mm	100	102	128
Frame#	Time	LASI			RASI			LPSI			RPSI			RTH1			RTH3			LTH1			LTH2			LTH3			RTB1			RTB2			LTB1			LTB2			RCAL			RTOE			LCAL			LTOE			LACR			RACR			CLAV			C7			RUA1			RUA2			RUA3			RLEL			RMEL			LUA1			LUA2			LUA3			LLEL			LMEL			RFAsuperior			RFAradius			RFAulna			LFAsuperior			LFAradius			LFAulna			RTH2			RTB3			RMT5			LMT5			LTB3			
		X1	Y1	Z1	X2	Y2	Z2	X3	Y3	Z3	X4	Y4	Z4	X5	Y5	Z5	X6	Y6	Z6	X7	Y7	Z7	X8	Y8	Z8	X9	Y9	Z9	X10	Y10	Z10	X11	Y11	Z11	X12	Y12	Z12	X13	Y13	Z13	X14	Y14	Z14	X15	Y15	Z15	X16	Y16	Z16	X17	Y17	Z17	X18	Y18	Z18	X19	Y19	Z19	X20	Y20	Z20	X21	Y21	Z21	X22	Y22	Z22	X23	Y23	Z23	X24	Y24	Z24	X25	Y25	Z25	X26	Y26	Z26	X27	Y27	Z27	X28	Y28	Z28	X29	Y29	Z29	X30	Y30	Z30	X31	Y31	Z31	X32	Y32	Z32	X33	Y33	Z33	X34	Y34	Z34	X35	Y35	Z35	X36	Y36	Z36	X37	Y37	Z37	X38	Y38	Z38	X39	Y39	Z39	X40	Y40	Z40	X41	Y41	Z41	X42	Y42	Z42	

99	1.17	794.367045	1035.595243	-464.739783	797.587397	1007.834271	-206.255285	611.674225	1105.933293	-356.900183	619.676188	1104.360724	-270.723531	706.487312	878.732273	-146.830852	610.881398	655.050348	-182.676302	738.315348	917.096907	-515.085784	836.928005	823.219297	-489.831165	805.488914	673.559493	-472.64835	479.119695	463.27229	-246.011247	366.266238	491.704503	-207.229707	922.3482780000001	473.092701	-405.130877	873.5223570000001	382.36724	-459.371916	142.751733	549.809197	-305.119493	132.556303	316.960018	-311.188567	848.988982	112.407202	-337.936995	1076.679661	122.495428	-365.743336	746.724183	1556.815494	-491.892839	775.331646	1529.834896	-158.649544	833.230296	1498.276752	-313.99708	703.624064	1579.761303	-334.338298	725.906884	1419.857248	-74.503	643.64417	1351.914933	-93.155237	687.963308	1306.652339	-48.548504	673.457102	1210.035017	-29.416423	631.419835	1196.133867	-100.868994	655.70707	1504.562826	-583.208047	567.6673929999999	1459.437898	-565.199593	581.345523	1426.108322	-639.055784	537.755782	1353.23656	-681.921188	482.487423	1344.700475	-625.672628	739.007968	1165.755798	-51.404554	911.537511	1158.433246	-162.81731	888.441587	1091.921827	-145.5236	600.059404	1248.921141	-646.095494	706.231455	1187.54709	-543.92466	654.07659	1144.465043	-553.939441	715.204738	732.409736	-169.259858	279.975518	441.666995	-271.358593	85.002773	343.484607	-238.224843	1044.543171	65.19516	-430.669044	945.354146	269.285806	-386.307504	
100	1.18	793.136028	1029.617721	-463.985284	797.838664	1002.452065	-206.209147	610.961934	1098.324537	-356.786596	620.000631	1096.286055	-271.65805	710.395852	871.7316510000001	-145.95529	622.898315	644.918918	-180.120606	736.1926989999999	909.266344	-514.7279579999999	835.809292	815.780041	-492.474895	801.806185	665.622697	-471.223074	491.890978	460.327339	-242.792853	381.069732	496.390267	-204.492194	915.2520500000001	462.975108	-404.551443	864.723835	372.772081	-458.516624	161.398393	569.618292	-301.913797	139.229015	337.602016	-310.378672	833.258404	107.013779	-334.219225	1061.840563	106.192532	-365.262217	747.174378	1547.742601	-494.568017	773.410303	1523.391062	-159.372371	832.8730420000001	1491.474659	-314.531751	703.364599	1572.520521	-336.282592	722.592178	1413.869398	-75.76079900000001	640.199583	1346.876275	-94.35386099999999	683.855861	1301.223504	-49.030911	667.4936729999999	1205.279512	-29.490861	625.390095	1192.057977	-100.662636	658.040783	1492.367582	-586.64684	570.6892350000001	1445.513906	-570.0224480000001	586.6765830000001	1411.022426	-642.910757	545.236615	1337.317748	-685.498855	489.39646	1327.885687	-630.069042	731.460525	1158.052653	-50.063197	904.679639	1140.871853	-158.940945	877.382252	1075.851832	-142.921049	610.2934299999999	1235.505137	-647.769172	717.385511	1179.385486	-543.381917	666.974692	1134.543154	-553.915024	724.04819	725.420406	-166.879294	292.045556	452.666563	-269.446007	92.173641	365.978289	-236.582932	1025.002843	54.070651	-431.895614	934.39201	258.564387	-385.2899	
101	1.19	791.514653	1022.786854	-462.572229	797.707461	996.20372	-205.514825	610.088358	1089.764322	-356.648616	619.607474	1087.170975	-272.327827	713.909324	864.007205	-144.767902	636.178847	633.767798	-176.996364	734.57786	900.903281	-513.746486	835.196153	808.555501	-494.253492	798.819024	656.841192	-470.381642	506.958054	456.400909	-240.244653	398.548359	499.129334	-201.48345	907.715197	451.115153	-403.494704	854.720073	362.350178	-457.772047	183.295807	586.316353	-298.480529	150.368871	355.744178	-309.695008	807.083156	101.118584	-330.765876	1037.691599	90.654194	-362.042052	748.059448	1537.613053	-497.334561	771.181541	1515.983844	-159.962401	832.382383	1483.757245	-314.815545	703.182588	1564.197909	-338.193426	718.776829	1406.577402	-77.24282700000001	636.2964469999999	1340.701477	-95.892996	678.9302280000001	1294.902319	-49.349638	661.032064	1199.834215	-29.493449	619.0177650000001	1187.148392	-100.487893	661.105095	1478.74157	-590.372864	574.546791	1430.091682	-575.380249	593.243939	1394.472458	-647.126999	554.1135860000001	1320.182343	-689.429761	497.514845	1309.847941	-634.886688	723.125363	1149.393348	-48.48709	896.621953	1122.110228	-154.885053	865.270091	1058.935716	-139.787893	621.7440800000001	1221.078202	-649.307153	729.312828	1170.80444	-542.464164	680.793131	1124.201131	-553.8135150000001	733.576555	717.8190509999999	-164.051682	307.485318	461.713802	-267.304549	103.221626	385.734211	-234.43957	996.522234	46.994299	-432.380648	917.30106	246.121712	-381.971187	
102	1.2	789.4808420000001	1015.284352	-461.341024	797.167738	989.285962	-204.949799	608.294138	1080.462301	-356.360751	617.644151	1077.099211	-272.20024	717.241404	855.424768	-143.490488	650.910899	621.8929889999999	-173.398136	733.408903	892.039707	-512.402055	833.841942	800.705045	-494.017583	796.776281	647.899709	-470.793512	524.386304	451.843899	-238.842894	418.359598	499.959886	-198.24775	899.0955279999999	438.679075	-401.045793	842.837858	352.362912	-455.866562	207.91903	599.757253	-294.65857	165.452918	371.030762	-308.731583	771.291526	94.478931	-326.523817	1004.334395	79.531897	-357.55901	749.393427	1526.724114	-500.188153	768.983974	1507.853705	-160.521159	831.9494099999999	1475.109135	-315.118588	702.941659	1554.926712	-340.138379	714.714661	1398.521088	-78.815145	631.995195	1333.826517	-97.647154	673.282722	1287.963433	-49.679847	653.9945300000001	1193.800949	-29.507939	612.346328	1181.573449	-100.545919	665.017979	1463.661375	-594.443214	579.381979	1413.364463	-581.211217	601.090269	1376.824941	-651.712092	564.528642	1302.157192	-693.836462	507.183637	1290.575177	-640.084986	713.8440430000001	1139.982825	-46.816999	887.3814149999999	1102.670239	-150.697818	852.323812	1041.589348	-135.848699	634.513572	1205.937485	-650.65798	741.9721060000001	1162.056309	-541.1121010000001	695.600863	1113.6176	-553.415792	743.875239	709.815775	-161.120786	325.935406	468.622617	-264.84075	118.494066	402.295501	-232.002861	960.213336	45.045619	-432.099432	893.457107	233.768094	-375.513824	
103	1.21	786.9260849999999	1007.181609	-461.124682	796.0967920000001	981.807875	-205.334935	605.3294	1071.098282	-356.142301	613.898893	1066.474404	-271.490004	721.052767	846.149586	-142.427557	666.950424	610.041619	-169.739402	731.905875	883.396765	-511.424534	830.912206	792.006208	-492.103157	794.785605	639.571137	-471.810013	544.232939	447.272921	-237.87578	440.203171	499.149536	-194.842156	888.683872	427.155844	-396.919101	828.317827	344.147843	-452.205795	234.509939	609.927221	-290.255021	184.143307	383.069949	-307.131788	730.2212939999999	88.46259499999999	-321.083421	965.187069	73.84245799999999	-353.371189	751.110371	1515.535505	-503.221656	767.122014	1499.457228	-161.028143	831.8501230000001	1465.755412	-315.433378	702.436043	1545.007483	-342.291818	710.645954	1390.362089	-80.381879	627.4011379999999	1326.772654	-99.468287	667.102852	1280.822767	-50.241788	646.249568	1187.400257	-29.702926	605.235725	1175.654323	-100.941316	669.999516	1447.426628	-598.8496740000001	585.366028	1395.721254	-587.511445	610.268166	1358.555597	-656.522784	576.6521320000001	1283.539217	-698.4666099999999	518.77941	1270.191919	-645.53869	703.730651	1130.40187	-45.256409	876.991684	1083.399356	-146.209656	838.744748	1024.39776	-130.88894	648.830627	1190.534141	-651.815255	755.315768	1153.381659	-539.13683	711.479454	1102.82481	-552.13214	754.8447619999999	702.043595	-158.526454	346.94348	473.384923	-262.023011	138.016691	415.08378	-229.510828	919.541635	46.412685	-430.864088	864.862565	223.549969	-367.064254	
104	1.22	783.665125	998.515669	-461.869	794.301981	973.802096	-206.734677	602.14341	1062.797319	-356.284637	609.226955	1056.362901	-270.790522	725.85127	837.118083	-141.719698	684.098192	599.32227	-166.480641	729.122912	875.912645	-511.289213	826.303613	782.9864710000001	-489.849903	790.8904649999999	632.057259	-471.959184	566.45633	443.293209	-236.031968	463.956125	497.134606	-191.4263	876.088601	417.249903	-391.848423	810.91103	337.995292	-447.394175	262.0604	616.844299	-285.094981	206.222189	391.455675	-304.926357	689.095912	85.102536	-315.073617	925.01554	71.702365	-350.096699	753.099847	1504.610202	-506.412228	765.668175	1491.354667	-161.518431	832.227214	1456.147055	-315.450514	701.685276	1535.138313	-344.763376	706.7854589999999	1382.73992	-81.887647	622.637381	1320.202851	-101.347353	660.551654	1274.152662	-51.180746	637.706618	1181.210863	-30.244016	597.5441980000001	1169.962696	-101.724897	676.151604	1431.021953	-603.27263	592.5431	1377.75452	-594.002762	620.779791	1340.374084	-661.180598	590.678509	1264.76427	-702.793108	532.525892	1249.269542	-650.875232	692.979323	1121.487519	-43.988181	865.446704	1065.295277	-141.26986	824.605282	1008.187748	-124.911047	664.99012	1175.569987	-652.633408	769.348927	1145.12493	-536.2728959999999	728.479834	1092.163263	-549.53147	766.2852360000001	695.483356	-156.494013	370.189826	476.157368	-259.031882	161.201517	423.509625	-226.886566	878.409707	48.403401	-428.733262	834.919508	216.274931	-358.97165	
